<svg version="1" xmlns="http://www.w3.org/2000/svg" width="960" height="960" viewBox="0 0 720.000000 720.000000"><path d="M349.9.5c-.3.2-2 .6-3.9.8-13.6 1.6-31.1 10.9-42.6 22.5-8.3 8.4-16.9 23.3-19.4 33.5-.6 2.3-1.3 5.1-1.6 6.2-.3 1.1-.8 6.4-1.1 11.7-.4 6.8-1 9.9-1.9 10.2-.8.3-1.4.2-1.4-.2s-1.9-.7-4.2-.6c-2.4 0-4.7-.1-5.2-.4-.4-.2-3.4-.6-6.5-.7-3.2-.2-8-.6-10.7-.9-2.7-.4-6.9-.9-9.4-1.1-16.2-1.3-19.8-1.7-22-2-5.2-.9-17.4-.5-18.7.5-.4.3-2 .7-3.3.9-3.8.5-12.3 12.1-11.9 16.5 0 1.1 0 2.3-.1 2.6-.3.8-1.3 31.2-1 32 .1.3.3 1.2.5 2 .8 3.5 4.1 11.6 5 12.2.6.4.7.8.2.8-.4 0 0 1.7.9 3.7.9 2.1 1.7 4.4 1.7 5 0 .7 4.8 6.2 10.6 12.3 5.8 6 11.1 11.6 11.7 12.3 2.1 2.2 5.4 4.7 6.4 4.7.6 0 1 .4 1 1 0 .5.8 1 1.9 1 1 0 2.4.7 3.1 1.5.7.8 1.9 1.5 2.6 1.5 2.3 0 1.6 2-1.1 3-3.4 1.3-21.6 12.3-29.5 17.9-3.6 2.5-10.9 8.1-16.3 12.6-5.4 4.4-10.9 8.9-12.3 9.9l-2.4 2-5.9-5.5c-5.5-5-5.9-5.6-5.4-9 .4-3.3 0-4.1-3.7-7.5-2.3-2.2-8.1-7.7-12.9-12.2-12.3-11.9-12.1-11.8-17.4-9.3-5.3 2.6-18.2 14.4-24.1 22-4.2 5.5-8.6 13.1-8.6 15 0 .9 8.8 9.7 22.5 22.6 5.5 5.1 6.3 5.6 9.5 5.1 3.3-.5 4.1-.1 9.8 5.5l6.3 6-5.8 8.2c-11.8 16.6-24.5 38.6-30 52.2-.7 1.7-2.1 5-3.1 7.5-5 11.8-13.2 39.2-14.8 49.4-.3 2.1-.8 4.8-1 6-.3 1.1-.7 3.9-1 6.1-.3 2.2-.7 5.1-.9 6.5-1.3 7.6-1.9 18.6-2 36 0 21.8.9 33.8 3.7 47.9.5 3 1.1 6.4 1.3 7.5.1 1.2.8 4.3 1.5 7.1.6 2.7 1.3 5.7 1.5 6.5 1.4 6.2 8.7 28.7 11.5 35.5 11.6 27.4 25 50.2 42.7 72.2 6.7 8.3 26.3 28.8 32.4 33.8 1.3 1.1 5.2 4.4 8.6 7.2 13.8 11.4 32.6 23.5 51.3 32.8 19.5 9.8 31.1 14.2 52.7 20.1 9.6 2.6 10.6 2.8 16.4 3.8 1.9.3 4.5.8 5.9 1.1 3.2.7 14.6 2.3 21.9 3.2 12.8 1.5 53.5.7 65.2-1.2 1.3-.2 4.1-.6 6.3-1 19.4-2.9 48.4-11.2 66.1-19.1 2.2-1 4.2-1.8 4.5-1.9.9-.1 21.3-10.6 26-13.3 2.5-1.4 6.6-4.1 9.2-5.9 2.6-1.8 5-3.3 5.4-3.3.3 0 5.1-3.4 10.7-7.6 42.5-31.9 73.2-71.4 93.2-119.9 3.3-8.2 9.5-26.3 11.1-33 .4-1.7.8-3.5 1-4 1.9-7.1 5.7-28.8 6.9-39 1.3-12.4 1.4-51.3.1-57.5-.3-1.4-.7-4.9-1-7.8-.3-2.9-.7-6.1-1-7-.3-.9-.7-3.5-1.1-5.6-.3-2.1-.7-4.8-1-6-.3-1.2-.7-3.3-.9-4.7-.7-4.7-5.6-22.1-8.8-31.4-5.3-15.7-13.2-32.9-22.8-50-2.8-5-15.7-24.3-18-27-3.3-3.9-3.2-4.4 3.1-10.5 5.8-5.5 6.5-5.9 9.8-5.4 3.5.5 4 .1 18-13.3l14.4-13.9-2-4.4c-4.1-9.1-16.9-23.5-27.3-30.7-7.8-5.4-8.5-5.2-17.5 3.3-21.2 20.1-20.7 19.5-20.1 22.9.6 2.8 0 3.7-5.3 8.8-3.2 3.1-6.3 5.7-6.8 5.7s-2-1.2-3.4-2.6c-3.2-3.4-18.7-15.9-26.9-21.5-25.8-18-56.9-32.4-87-40.5-8.3-2.3-27.7-6.2-34.5-6.9-3.3-.4-6.4-1-6.8-1.5-.5-.4-.7-3.1-.5-6 .3-5.3.3-5.4 5.3-7.9 17.9-9.3 31-24.5 38.4-44.6 4.1-11.1 4.9-32.4 1.7-44.2-3.3-12.2-10.4-25.2-18.9-34.4C408 15.3 392.2 6 379 2.5c-5.9-1.6-28.1-3.1-29.1-2zm21.6 16c25 4.8 46.2 26.2 50.1 50.8 1.7 10.6.6 24.8-2.4 32.2-4.4 10.7-12.1 21.8-18.3 26.5-1.8 1.4-3.7 3-4.3 3.6-1.3 1.2-5.2 3.4-6.1 3.4-1 0-.1-9 1-9.1.6-.1 2.2-1 3.6-2l2.6-1.9-.1-27.6-.1-27.7-3.5-1.8c-12.3-6.4-51.7-7-67.1-1.1-5.8 2.3-5.7 1.9-5.7 30.4 0 14.5.4 27 .9 27.9.4.9 2.2 2.2 3.9 2.9 2.7 1.1 3 1.7 3 5.6 0 2.4-.4 4.4-.8 4.4-1.3 0-9.3-5.9-12.4-9.1-2.4-2.4-2.8-3.8-2.9-8.6-.1-7.5-.6-17.8-.9-17.8-.1 0-.3-1.2-.4-2.8-.1-1.5.2-2.7.7-2.7.4 0 .4-.8-.1-1.7-1.1-1.8-2.1-2.1-9.7-2.9-2.7-.3-5.2-.7-5.4-.9-.9-1-.6-13.6.5-19.5 1.7-8.9 3.5-13.6 8.1-21.1 8-13.1 17.7-21 32.8-26.9 8.1-3.2 23.4-4.3 33-2.5zm-42.7 139.6c.2 2.9 0 5.5-.5 6-.4.4-3.6 1-7 1.4-6.1.6-6.3.6-6.4-1.7 0-1.3-.2-6-.3-10.5l-.4-8.3 7.2 4 7.1 3.9.3 5.2z"/></svg>